<svg xmlns="http://www.w3.org/2000/svg" xmlns:xlink="http://www.w3.org/1999/xlink" preserveAspectRatio="xMidYMid" width="26" height="48" viewBox="0 0 26 48">
  <defs>
    <style>
      .cls-1 {
        fill: #96bf0d;
        fill-rule: evenodd;
      }
    </style>
  </defs>
  <path d="M25.021,0.009 L18.784,-0.001 C11.778,-0.001 7.251,4.636 7.251,11.812 L7.251,17.259 L0.981,17.259 C0.439,17.259 0.000,17.698 0.000,18.238 L0.000,26.130 C0.000,26.671 0.439,27.109 0.981,27.109 L7.251,27.109 L7.251,47.022 C7.251,47.563 7.689,48.000 8.231,48.000 L16.412,48.000 C16.954,48.000 17.392,47.562 17.392,47.022 L17.392,27.109 L24.723,27.109 C25.265,27.109 25.704,26.671 25.704,26.130 L25.707,18.238 C25.707,17.979 25.603,17.730 25.420,17.546 C25.236,17.362 24.986,17.259 24.726,17.259 L17.393,17.259 L17.393,12.642 C17.393,10.423 17.923,9.296 20.818,9.296 L25.020,9.295 C25.561,9.295 26.000,8.856 26.000,8.316 L26.000,0.988 C26.000,0.448 25.561,0.010 25.021,0.009 Z" class="cls-1"/>
</svg>
