<svg xmlns="http://www.w3.org/2000/svg" xmlns:xlink="http://www.w3.org/1999/xlink" preserveAspectRatio="xMidYMid" width="48.5" height="48.5" viewBox="0 0 48.5 48.5">
  <defs>
    <style>
      .cls-1 {
        fill: #96bf0d;
        fill-rule: evenodd;
      }
    </style>
  </defs>
  <path d="M6.223,-0.003 L42.276,-0.003 C45.700,-0.003 48.502,2.533 48.502,6.223 L48.502,42.276 C48.502,45.967 45.700,48.501 42.276,48.501 L6.223,48.501 C2.798,48.501 -0.002,45.967 -0.002,42.276 L-0.002,6.223 C-0.002,2.533 2.798,-0.003 6.223,-0.003 L6.223,-0.003 ZM35.331,5.387 C34.130,5.387 33.148,6.369 33.148,7.570 L33.148,12.797 C33.148,13.998 34.130,14.981 35.331,14.981 L40.813,14.981 C42.014,14.981 42.996,13.998 42.996,12.797 L42.996,7.570 C42.996,6.369 42.014,5.387 40.813,5.387 L35.331,5.387 L35.331,5.387 ZM43.019,20.510 L38.750,20.510 C39.154,21.828 39.373,23.225 39.373,24.671 C39.373,32.739 32.622,39.279 24.296,39.279 C15.970,39.279 9.220,32.739 9.220,24.671 C9.220,23.225 9.438,21.828 9.842,20.510 L5.388,20.510 L5.388,40.998 C5.388,42.058 6.255,42.926 7.316,42.926 L41.093,42.926 C42.153,42.926 43.020,42.059 43.020,40.998 L43.020,20.510 L43.019,20.510 ZM24.295,14.706 C18.916,14.706 14.554,18.931 14.554,24.144 C14.554,29.358 18.916,33.584 24.295,33.584 C29.675,33.584 34.038,29.358 34.038,24.144 C34.038,18.931 29.676,14.706 24.295,14.706 Z" class="cls-1"/>
</svg>
