<svg xmlns="http://www.w3.org/2000/svg" xmlns:xlink="http://www.w3.org/1999/xlink" preserveAspectRatio="xMidYMid" width="50" height="49" viewBox="0 0 50 49">
  <defs>
    <style>
      .cls-1 {
        fill: #005aa6;
        opacity: 0.5;
        fill-rule: evenodd;
      }
    </style>
  </defs>
  <path d="M48.920,22.174 L27.627,1.075 C26.176,-0.363 23.822,-0.363 22.370,1.075 L1.078,22.174 C0.015,23.228 -0.303,24.812 0.272,26.189 C0.848,27.565 2.203,28.463 3.707,28.463 L6.591,28.463 L6.591,44.237 C6.591,46.869 8.744,49.001 11.399,49.001 L38.598,49.001 C41.254,49.001 43.406,46.869 43.406,44.237 L43.406,28.463 L46.291,28.463 C47.794,28.463 49.150,27.565 49.725,26.189 C50.301,24.812 49.983,23.228 48.920,22.174 ZM30.616,42.093 L19.381,42.093 L19.381,35.817 C19.381,32.742 21.896,30.250 24.999,30.250 C28.101,30.250 30.616,32.742 30.616,35.817 L30.616,42.093 Z" class="cls-1"/>
</svg>
